<svg xmlns="http://www.w3.org/2000/svg" width="1442" height="811" viewBox="0 0 1442 811"><path fill="#5CE0E3" d="M1317.906 465.9c-4.74 6.426-44.041 30.467-52.273 35.565-169.953 105.222-372.667 109.758-564.798 82.083-173.242-24.955-342.164-69.385-515.186-95.342a1621 1621 0 0 0-95.1-11.41c-6.239-.592-35.114-1.013-38.5-4.226l.452-1.013c3.893-.726 15.981-1.05 20.313-1.244l43.706-1.598c11.028-1.033 50.015-.62 60.558.878 27.234-.534 53.227 2.29 80.227 4.24 292.008 21.07 600.055 138.038 892 57.871a998 998 0 0 0 47.255-14.217c7.894-2.657 29.681-11.624 35.592-12.24 3.11-.261 5.625-2.265 8.69-3.752 4.896-1.399 10.319-5.202 15.156-6.947 20.413-7.36 41.78-21.865 61.908-28.647"/><path fill="#A78255" d="M381.656 256.69c4.187.08 11.56.405 15.439.041.044 2.363.001 6.234.4 8.415l.131.184.58-.248c.228-2.964.464-5.147.938-8.08l2.699-.128 16.353.049-.072 9.096 1.465.615.886.26c17.864-.988 47.722-.004 66.353-.004l135.53-.015c4.39 3.35 12.942 12.545 17.354 16.829 13.183 12.8 25.899 26.4 39.528 38.74-15.383 13.648-34.4 33.79-49.36 48.725l-88.278 88.129c-9.63-8.468-22.477-21.977-31.92-31.404l-54.804-54.61-64.632-64.447c-13.364-13.28-29.095-28.342-41.776-42.094q15.165.104 30.332.033l-.422-2.37.376-7.348z"/><path fill="#B29067" d="M381.656 256.69c4.187.08 11.56.405 15.439.041.044 2.363.001 6.234.4 8.415l.131.184.58-.248c.228-2.964.464-5.147.938-8.08l2.699-.128 16.353.049-.072 9.096 1.465.615.886.26c-4.131 1.772-35.47 1.61-40.967.96l-.706-1.078-.422-2.37.376-7.348z"/><path fill="#A78255" d="m401.843 256.874 16.353.049-.072 9.096c-4.933-1.939-12.02-1.44-17.287-1.05-1.897-1.533-.363-4.68-1.693-7.968z"/><path fill="#A78255" d="M381.656 256.69c4.187.08 11.56.405 15.439.041.044 2.363.001 6.234.4 8.415-3.94-.976-15.123-1.521-19.115-.74l.376-7.348z"/><path fill="#A78255" d="M731.612 269.252c4.76-3.675 26.01-2.127 33.114-2.13l49.862-.156 122.284-.015c23.906-.004 49.066.372 72.866-.284-9.958 9.02-20.54 20.076-30.109 29.645l-48.457 48.377c-7.586 7.568-18.911 19.61-26.707 26.37-2.817 3.738-20.781 20.612-25.67 25.486l-62.705 62.734c-36.456-34.144-70.977-71.766-107.091-106.365-10-9.579-21.123-20.382-30.427-30.562 14.906-14.664 39.85-37.997 53.04-53.1"/><path fill="#967351" d="M731.612 269.252c4.76-3.675 26.01-2.127 33.114-2.13l49.862-.156 122.284-.015c23.906-.004 49.066.372 72.866-.284-9.958 9.02-20.54 20.076-30.109 29.645l-48.457 48.377c-7.586 7.568-18.911 19.61-26.707 26.37 3.312-7.473 29.043-29.42 36.14-37.323 7.931-8.831 19.895-21.305 28.975-29.053 12.528-10.693 21.578-23.723 32.708-34.706-22.381-.8-48.284-.229-70.906-.22H806.687l-47.94.148c-6.976.003-20.574.278-27.135-.653"/><path fill="#A78255" d="M1036.813 267.568c7.286 6.847 14.683 14.03 21.615 21.233 37.748 39.197 78.507 76.523 116.021 115.85 5.325 3.703 30.343 9.318 37.553 10.487 4.04-1.999 9.756-5.587 14.052-4.518 3.041 3.263.015 7.885 2.155 10.054.083.08 5.76 1.528 6.444 1.691l11.829 2.65c9.455-4.257 20.518-9.232 30.282-12.514 11.806-4.623 24.401-6.414 37.034-6.079-14.533 20.006-37.71 26.963-59.115 37.293-3.432 1.655-28.224 11.737-28.014 14.01l.954.656c-8.344 2.455-28.907 7.805-35.149 13.918-2.17 3.817-3.92 8.28-8.9 7.89-2.575-4.278 1.518-3.364-2.613-9.899-.969-.429-3.905-3.873-5.4-4.61-4.506-2.22-10.147-.536-13.188-4.503-7.894-5.455-30.372-29.166-38.521-37.16-29.178-28.613-57.74-58.317-87.114-86.753-8.712 7.006-27.683 27.031-36.155 35.576l-53.55 53.482c-10.544 10.531-22.748 23.32-33.63 33.22-21.278.84-47.422.141-69.082.164 6.587-7.802 19.993-20.363 27.571-27.896l49.824-49.712 72.972-72.958c13.338-13.325 28.321-29.002 42.125-41.572"/><path fill="#3E393B" d="M1174.45 404.65c5.324 3.704 30.342 9.319 37.552 10.488 4.04-1.999 9.756-5.587 14.052-4.518 3.041 3.263.015 7.885 2.155 10.054.083.08 5.76 1.528 6.444 1.691l11.829 2.65c9.455-4.257 20.518-9.232 30.282-12.514 11.806-4.623 24.401-6.414 37.034-6.079-14.533 20.006-37.71 26.963-59.115 37.293-3.432 1.655-28.224 11.737-28.014 14.01l.954.656c-8.344 2.455-28.907 7.805-35.149 13.918-2.17 3.817-3.92 8.28-8.9 7.89-2.575-4.278 1.518-3.364-2.613-9.899-.969-.429-3.905-3.873-5.4-4.61-4.506-2.22-10.147-.536-13.188-4.503 3.913-1.123 5.828-3.461 9.733-2.755.969-.383 2.373-1.46 3.297-2.1 4.244-.568 9.186-1.378 12.7 1.464 2.186-1.09 3.598-2.07 5.618-3.424l1.983.956a803 803 0 0 0 17.507-11.678c-1.375-1.33-8.577-10.341-8.442-10.269-13.699-7.278-35.817-16.628-48.6-24.107 2.674-1.519 6.617-3.924 9.576-4.376 3.672-.56 5.16 1.46 8.704-.237"/><path fill="#6C5E5A" d="M1175.403 456.322c4.244-.568 9.186-1.378 12.7 1.464-.84.554-2.373 1.497-3.101 2.08-4.447.227-8.645.006-12.896-1.444.969-.383 2.373-1.46 3.297-2.1"/><path fill="#2E2C2E" d="M1180.961 470.29c4.16 1.403 3.8 4.04 7.187 4.211 1.412-.826 2.772-1.75 4.326-2.202-2.17 3.817-3.92 8.28-8.9 7.89-2.575-4.278 1.518-3.364-2.613-9.899"/><path fill="#967351" d="m1193.721 454.362 1.983.956c-4.319 3.336-5.408 4.812-10.702 4.548.728-.583 2.26-1.526 3.101-2.08 2.186-1.09 3.598-2.07 5.618-3.424"/><path fill="#3E393B" d="M1172.752 447.62c7.203 1.767 13.984 4.28 20.97 6.742-2.021 1.353-3.433 2.334-5.619 3.424-3.514-2.842-8.456-2.032-12.7-1.464-3.079-.39-7.172-2.468-10.131-3.782z"/><path fill="#A78255" d="M678.431 58.784c6.665 3.462 51.3 50.342 59.937 58.957l65.33 65.094c22.418 22.08 46.436 45.287 68.12 67.934-18.71.916-50.794.664-69.645.097-6.459-4.815-29.546-29.031-36.666-35.981-28.73-28.062-56.822-57.623-85.697-85.545l-.608-.277c-.524.093-1.076.087-1.573.279-4.402 1.707-107.366 108.45-122.454 121.482-19.283.957-49.625.5-69.023-.13 7.322-8.475 19.057-19.533 27.193-27.69l53.705-53.52 71.013-70.788c12.892-12.855 27.187-27.708 40.368-39.912"/><path fill="#A78255" d="M319.767 267.894c.483.082.532.061.946.224 2.658 1.048 173.352 170.893 188.588 187.245a15 15 0 0 1 2.663 3.934c-2.47.515-17.665.313-21.08.316a2364 2364 0 0 1-47.064-.147c-3.835-3.183-10.867-10.604-14.597-14.32l-28.471-28.473-79.773-78.938c-1.184.303-2.118.667-3.013 1.529-40.856 39.33-79.942 81.462-121.125 120.368l-69.485.19c4.172-5.102 14.686-15.04 19.925-20.271l39.459-39.362z"/><path fill="#FC5114" d="M1001.334 510.423c6.602-.842 19.783-.103 27.684-.658 27.9-1.962 52.272-7.745 78.619-16.804a335 335 0 0 0 30.5-11.854c8.914-3.975 30.777-16.898 39.159-11.412 1.27 1.743 1.232 2.167 1.412 4.34-6.692 7.707-57.635 21.262-67.188 26.699l-.481.278c9.32 1.288 75.765-11.692 89.78-14.26 5.362-.983 22.253-5.552 27.247-4.996l.24.59c-26.631 11.956-63.154 24.386-91.176 32.247a759.4 759.4 0 0 1-139.003 24.653c-128.135 10.51-275.913-8.544-401.393-33.018-13.47-2.627-85.576-17.617-94.109-22.406 11.515.129 24.705 2.356 36.332 3.33 34.18 2.865 68.882 7.2 103.032 9.924 26.287 1.927 52.948 4.77 79.327 6.786 7.559.577 32.633 1.785 38.626 2.953 17.717.753 35.314 2.006 53 2.997 1.676.093 5.679 0 7.113.388 12.483.162 24.484 1.052 36.899 1.388q43.656 1.13 87.324.97a764 764 0 0 0 36.89-1.026c7.782-.445 12.273-1.675 20.166-1.109"/><path fill="#3E393B" d="M1001.334 510.423c6.602-.842 19.783-.103 27.684-.658 27.9-1.962 52.272-7.745 78.619-16.804a335 335 0 0 0 30.5-11.854c8.914-3.975 30.777-16.898 39.159-11.412 1.27 1.743 1.232 2.167 1.412 4.34-6.692 7.707-57.635 21.262-67.188 26.699l-.481.278c-4.266-1.173-17.695 3.043-22.554 4.07-23.56 4.984-47.233 9.198-71.424 7.56-2.148-.146-5.505-.299-7.683-.21-2.914-.81-5.43-.207-8.044-2.009"/><path fill="#E85521" d="M820.055 510.2c12.483.162 24.484 1.052 36.899 1.388q43.656 1.13 87.324.97a764 764 0 0 0 36.89-1.026c7.782-.445 12.273-1.675 20.166-1.109 2.614 1.802 5.13 1.2 8.044 2.01-36.223 3.2-74.278 3.622-110.644 2.445-13.023-.422-26.436.745-39.362-.775l1.037-.21c-8.645-.687-34.871.262-40.354-3.693"/><path fill="#E85521" d="M641.99 497.076c26.286 1.927 52.947 4.77 79.326 6.786 7.559.577 32.633 1.785 38.626 2.953-11.38 1.718-41.865.309-53.5-1.455-8.935-1.354-8.38-4.21-23.055-2.955l1.349.205c-8.882.447-35.628-1.836-42.747-5.534"/><path fill="#0496AD" d="M674.454 690.543c-11.458 24.363-40.445 34.897-64.875 23.576s-35.128-40.244-23.943-64.733c11.186-24.49 40.053-35.347 64.609-24.3a48.94 48.94 0 0 1 24.21 65.457m-50.792 13.136.546.078c19.531 2.728 34.48-5.17 36.857-26.11a41.1 41.1 0 0 0-8.667-30.328c-12.75-15.89-31.054-16.504-46.255-3.787-13.616 22.16-7.704 50.237 17.519 60.147"/><path fill="#098CA0" d="M674.454 690.543c-11.458 24.363-40.445 34.897-64.875 23.576s-35.128-40.244-23.943-64.733c11.186-24.49 40.053-35.347 64.609-24.3l2.509 4.433c-26.929-11.694-62.002-.532-68.59 30.941-1.852 8.843-1.575 20.34 1.952 28.64a39.43 39.43 0 0 0 21.794 21.5c13.604 5.421 30.6 5.342 44.574.094 11.455-4.302 16.758-18.258 21.97-20.151"/><path fill="#028097" d="M650.245 625.086a48.94 48.94 0 0 1 28.448 38.27l-1.79-.282c-5.505-5.576 1.395-21.298-24.15-33.555z"/><path fill="#098CA0" d="M606.143 643.532c-.02-7.744 14.097-12.095 20.532-11.49 22.377 2.086 39.927 19.598 35.754 43.018-.364 2.042.426 5.265.17 7.352-2.113 17.289-18.18 26.374-34.623 24.199-2.319-.307-2.539-.01-4.048-1.702l-.266-1.23.546.078c19.531 2.728 34.48-5.17 36.857-26.11a41.1 41.1 0 0 0-8.667-30.328c-12.75-15.89-31.054-16.504-46.255-3.787"/><path fill="#0496AD" d="m837.119 622.9 24.379.173c-5.588 16.066-6.174 78.086.3 93.346-5.768.053-16.02 1.573-19.79-1.23-1.156-1.757-.796-3.737-.736-5.958l-.563-1.124-2.396.409c-.743 1.474-1.817 1.813-3.094 2.676-11.213 7.588-34.503 9.326-42.186-4.283-9.869-8.8-6.782-53.485-7.323-67.479.376-4.263.976-9.356.901-13.568l16.065-.045c0 5.578-1.517 9.47-1.93 14.783-.586 7.617-.646 15.497-.63 23.147.014 15.785-3.268 41.767 20.255 39.754l.12-.553c10.5-1.193 19.407-6.189 19.955-17.61.984-20.544 1.54-42.487-3.327-62.437"/><path fill="#098CA0" d="m837.119 622.9 24.379.173c-5.588 16.066-6.174 78.086.3 93.346-5.768.053-16.02 1.573-19.79-1.23-1.156-1.757-.796-3.737-.736-5.958.413 1.246.819 2.126 1.352 3.307 2.554 1.62 11.326 1.228 13.774-.42.789-2.386 0-5.3-.668-7.656-1.803-6.356-1.66-57.56-.864-66.245.18-2.015.766-3.914 1.3-5.858.518-1.902.916-3.631-.09-5.343-3.5-2.054-13.993-2.268-16.531.831 1.892 5.516 4.176 3.37 4.033 13.621-.225 16.337.608 32.927-.233 49.263-6.782 10.803-10.484 13.952-22.974 12.77l.12-.553c10.5-1.193 19.407-6.189 19.955-17.61.984-20.544 1.54-42.487-3.327-62.437"/><path fill="#098CA0" d="M793.033 706.909c3.567 1.011 7.48 5.048 9.403 5.445 6.992 1.443 18.723 2.008 25.55-.545 4.01-2.013 5.122-3.124 10.327-3.293-.743 1.474-1.817 1.813-3.094 2.676-11.213 7.588-34.503 9.326-42.186-4.283"/><path fill="#0496AD" d="M720.104 640.17c7.053-20.425 26.702-19.274 43.78-15.633l-.683 2.685c.166 2.94.661 6.39-.533 8.993-.909.77-1.727 1.497-2.696 2.189-7.188-2.966-10.46-3.607-17.929-1.937-7.046 5.571-9.231 11.352-2.641 18.9 8.025 9.191 22.508 12.468 28.959 23.535 4.506 7.308 3.56 15.21-.06 22.668-6.767 13.94-21.009 16.97-35.133 15.606a71.4 71.4 0 0 1-13.865-2.849c-.065-7.625-.303-15.99-.023-23.554 6.564 9.646 18.002 18.91 29.555 10.976q.478-.327.945-.669c16.043-25.307-41.421-21.585-29.676-60.91"/><path fill="#028097" d="M722.034 697.89c-.33 3.754-.936 8.05-.279 11.704 3.806 6.856 19.476 5.522 26.121 4.147 12.419-2.571 20.928-10.87 20.898-23.986-.037-21.832-30.001-22.762-36.612-41.12-1.079-2.997 2.775-7.73 4.328-10.155 1.087-1.674 3.495-1.808 5.553-2.013-7.046 5.571-9.231 11.352-2.641 18.9 8.025 9.191 22.508 12.468 28.959 23.535 4.506 7.308 3.56 15.21-.06 22.668-6.767 13.94-21.009 16.97-35.133 15.606a71.4 71.4 0 0 1-13.865-2.849c-.065-7.625-.303-15.99-.023-23.554 6.564 9.646 18.002 18.91 29.555 10.976q.478-.327.945-.669c-.277 8.616-14.363 5.56-19.161 3.426-3.946-1.753-5.597-3.635-8.585-6.616"/><path fill="#098CA0" d="M720.104 640.17c7.053-20.425 26.702-19.274 43.78-15.633l-.683 2.685c-7.322-2.08-21.19-3.523-28.436.251-6.207 3.233-10.741 11.122-14.661 12.697"/><path fill="#0496AD" d="M986.982 623.11c16.973-.577 36.606-.19 53.61.02-2.705 5.681-5.28 11.68-7.842 17.447l-8.321-3.618c-6.452-1.293-10.2-2.188-16.733-2.146q-.043 14.241.06 28.482c3.883 3.643 18.34.555 24.168 2.085l1.24 1.183c-.309 4.06-4.064 5.872-6.79 8.674-1.615 1.657-3.335 1.372-5.708 1.347-4.589-.908-8.171-1.2-12.805-1.605-.286 9.935.082 20.005-.21 29.655 1.246-.321 13.616-.992 16.162-1.215 1.81-.325 3.778-.527 5.61-.751 3.883 3.008 7.345-.316 10.552 1.38.166 2.781-1.9 6.36-3.124 9.087-13.323 1.252-31.679.034-46.009.684.849-5.533.376-8.277-.27-13.72.803-18.055.308-41.695.06-59.989-.991-7.56-1.442-9.913-3.65-17"/><path fill="#028097" d="M986.982 623.11c16.973-.577 36.606-.19 53.61.02-2.705 5.681-5.28 11.68-7.842 17.447l-8.321-3.618c5.01.073 10.424-1.609 11.889-7.125-1.833-6.248-14.39-4.09-19.91-4.07-7.668.027-15.675-.12-23.298.182l-1.126 1.004a68 68 0 0 1-.308 5.26q-.304-2.593-.563-5.191l-.721.198c.255 3.832.848 9.239.24 12.893-.991-7.56-1.442-9.913-3.65-17"/><path fill="#028097" d="M1007.65 704.634c1.247-.321 13.617-.992 16.163-1.215l2.073 1.36-.338.906c-2.892.975-16.5 1.873-17.897-1.051"/><path fill="#0496AD" d="M403.83 630.554c-1.677-1.877-4.82-4.894-5.264-7.122 1.307-.808 20.624-.392 24.108-.378.37 14.217 7.833 18.968 12.294 29.923 1.261 1.761 2.622 3.404 3.982 5.089 5.979-12.176 12.656-19.366 15.236-32.805l.542-1.713c4.45-1.181 17.722-.368 22.999-.557-11.135 12.358-19.58 33.805-28.992 47.67-3.67 7.652-2.19 30.181-.403 38.355-.597 1.555-1.056 3.808-2.817 4.328-4.524 1.339-14.636 1.018-18.49-1.539a72 72 0 0 0 1.147-4.217c1.59-6.743 2.704-27.204.421-32.717-5.373-12.985-17.239-32.283-24.762-44.317"/><path fill="#028097" d="m454.186 625.26.542-1.712c4.45-1.181 17.722-.368 22.999-.557-11.135 12.358-19.58 33.805-28.992 47.67.46-10.413 11.275-22.777 15.938-32.274 1.955-3.984 4.406-9.031 6.837-12.578-3.71.074-14.537.706-17.324-.548"/><path fill="#028097" d="M403.83 630.554c-1.677-1.877-4.82-4.894-5.264-7.122 1.307-.808 20.624-.392 24.108-.378.37 14.217 7.833 18.968 12.294 29.923-5.114-1.098-11.308-15.516-13.76-20.246.097.186-.2-5.541-.237-6.153-2.145-1.49-15.929-1.103-17.826.235q.358 1.867.686 3.741"/><path fill="#0496AD" d="M284.538 623.062q27.245-.146 54.49.045c-2.936 4.268-6.137 11.12-8.34 15.821l-8.321-2.47c-5.453-1.043-12.299-3.312-16.826-.695-.845 1.793-.695 2.725-.713 4.682q.267 11.621.116 23.247l.041.8c4.604.462 28.079-.393 29.919 1.127-.429 2.418-4.867 9.997-6.35 14.797-9.5-2.849-13.682-3.684-23.563-4.128-.272 16.808-.555 23.74 3.939 40.008-6.623.632-17.549.143-24.242-.197 4.98-16.562 3.144-33.91 3.45-50.946.276-15.278.4-27.296-3.6-42.09"/><path fill="#028097" d="M284.538 623.062q27.245-.146 54.49.045c-2.936 4.268-6.137 11.12-8.34 15.821l-8.321-2.47c5.756-2.208 7.103-1.191 10.945-6.787.003-6.601-37.964-3.852-44.338-3.785.414 16.744 1.441 33.223 1.086 49.882-.267 12.514-1.462 23.581-1.24 36.292 3.8 2.766 9.362.047 14.973 2.397 1.293-1.884-2.522-33.57-.437-37.526 3.96-7.518 18.913 3.186 25.914-2.3 1.393-2.045 1.318-2.807 1.489-5.196-2.156-5.05-20.12.58-25.498-2.839l-.276-2.105c4.604.463 28.079-.392 29.919 1.128-.429 2.418-4.867 9.997-6.35 14.797-9.5-2.849-13.682-3.684-23.563-4.128-.272 16.808-.555 23.74 3.939 40.008-6.623.632-17.549.143-24.242-.197 4.98-16.562 3.144-33.91 3.45-50.946.276-15.278.4-27.296-3.6-42.09"/><path fill="#028097" d="M304.944 663.692c-2.79-2.56-2.339-20.215-.116-23.247q.267 11.621.116 23.247"/><path fill="#0496AD" d="M503.864 625.816c1.065-1.585 1.13-2.37 3.056-2.537 6.762-.586 15.034-.367 21.768-.347l49.503.078a454 454 0 0 0-7.721 18.29c-3.576-1.652-6.545-3.075-10.316-4.316-3.325-.518-10.343-1.937-13.126-1.393l-.717 1.293c-.03 15.46-1.574 62.854 2.741 75.727l-2.188.551c-3.309.053-6.45.33-9.738.586-6.693.52-7.415-1.175-9.037-6.582.007-.834.302-2.25.45-3.127 2.99-20.624-.589-48.102 1.276-68.534-12.909.375-19.305 2.015-30.977 7.285 1.784-4.27 4.229-12.46 5.026-16.974"/><path fill="#028097" d="M503.864 625.816c1.065-1.585 1.13-2.37 3.056-2.537 6.762-.586 15.034-.367 21.768-.347l49.503.078a454 454 0 0 0-7.721 18.29c-3.576-1.652-6.545-3.075-10.316-4.316 1.828-1.17 6.054-.734 8.638-.957 2.514-1.428 4.908-7.17 6.375-10.038-20.927-1.003-49.785-.047-71.303-.173"/><path fill="#098CA0" d="M546.864 713.162c-.416-2.306-3.901-6.894-3.86-11.627.177-20.906-1.036-42.237.376-63.019.054-.797 2.214-1.35 2.931-1.632-.03 15.46-1.574 62.854 2.741 75.727z"/><path fill="#028097" d="M529.815 635.505c.89.974 1.554 2.253 1.509 3.592-.67 20.058 1.976 45.008-.162 64.503l-.854.775-1.77-.336c2.99-20.624-.588-48.102 1.277-68.534"/><path fill="#0496AD" d="M907.957 626.957c.541-1.746.579-2.469 1.848-3.682 5.257-.437 69.208-.708 71.506.184l.489 2.275c-3.177 5.546-4.664 10.04-7.3 15.543-4.672-2.611-8.224-3.784-13.497-4.846-3.32-.385-6.624-.79-9.959-1.04l-.6 7.64c-1.127 3.496-1.532 63.825-1.007 70.126-4.934.136-9.876.205-14.81.205.908-13.68-.39-31.804.09-45.964.135-4.104-.023-24.54-.639-27.553-.623-2.866-.06-2.355-1.96-3.977-3.327-.823-8.915.67-12.948 1.124-4.634-1.618-3.89-.575-8.764-.93-1.502-1.915-1.653-5.57-2.314-8.547z"/><path fill="#028097" d="M907.957 626.957c.541-1.746.579-2.469 1.848-3.682 5.257-.437 69.208-.708 71.506.184l.489 2.275-3.177.263c-20.586-.437-41.21-.177-61.796-.066-3.395.018-6.023 1.022-8.87 1.026"/><path fill="#098CA0" d="m978.623 625.997 3.177-.263c-3.177 5.546-4.664 10.04-7.3 15.543-4.672-2.611-8.224-3.784-13.497-4.846 6.872-2.896 8.27-.072 12.843-2.009 2.058-2.088 2.336-3.515 3.267-6.293l1.81-.695z"/><path fill="#0496AD" d="M345.591 623.103c8.223-.09 16.107-.199 24.338.127-6.495 24.327-2.923 53.4-3.876 79.334l.927 1.01c4.298.032 6.591-.856 9.674-.953 6.506 4.768 14.618-3.027 18.778-2.365 1.42 2.534-1.4 12.244-3.795 12.522-8.26.96-38.868 2.139-45.014-.349 4.176-13.95 2.805-53.958 2.538-70.273-1.046-8.342-1.31-10.784-3.57-19.053"/><path fill="#028097" d="M345.591 623.103c8.223-.09 16.107-.199 24.338.127-6.495 24.327-2.923 53.4-3.876 79.334-4.09-4.883-1.383-58.707-1.628-68.91-.036-1.502 1.763-6.017 2.43-7.608-4.722-.334-11.768-.147-16.662-.162.53 5.391-.698 10.576-1.032 16.272-1.046-8.342-1.31-10.784-3.57-19.053"/><path fill="#A78255" d="M1091.955 159.948c22.982-1.506 19.091 14.47 19.257 31.993.12 12.33 2.921 26.271-9.937 31.982-21.45.92-19.181-10.316-19.692-28.892-.323-11.763-2.704-30.134 10.372-35.083m7.225 57.882c7.052-5 4.837-22.783 4.934-31.277.113-10.187 2.389-20.746-10.236-20.34-1.923 1.39-4.259 2.814-4.394 5.43-.623 12.47-.646 25.2-.12 37.68.188 4.422 1.622 8.12 6.61 8.427 1.066.058 2.14.085 3.206.08"/><path fill="#A78255" d="M1025.788 159.916c20.414-1.261 20.323 10.201 19.828 27.333-.39 13.323 3.687 29.841-9.779 36.54-19.129 1.453-19.918-7.769-19.895-24.685.015-10.126-.728-22.586 1.51-32.395 2.786-3.72 4.243-4.742 8.336-6.793m7.473 57.977c7.586-5.848 4.379-21.813 4.784-31.664.436-10.593 2.336-20.206-10.282-20.014-2.17 1.628-3.905 3.062-4.025 6.953-.36 11.58-2.441 31.872 1.532 42.281.789 2.063 5.085 2.26 6.992 2.385z"/><path fill="#A78255" d="M985.893 160.143c8.99-.2 21.87-1.523 23.042 10.745.248 2.607.623 11.72-.849 13.73-5.017 6.83-5.257 3.393-.773 9.61a19.15 19.15 0 0 1 3.169 7.355 24.76 24.76 0 0 1-3.958 18.569c-6.309 4.94-17.882 3.697-25.543 2.87-.285-15.027.045-30.151-.18-45.188-.075-5.369-.203-11.085.383-16.4 1.577-1.506 2.065-1.06 4.709-1.29m2.546 56.876c5.415.504 8.51 1.055 13.256-1.739 2.418-6.328 3.958-18.564-4.424-21.203-2.681-.843-6.143-.424-8.915-.2zm0-30.076c4.499.207 7.676.656 11.784-1.546 1.667-2.957 2.921-8.851 2.223-11.986a9 9 0 0 0-4.491-5.897c-2.63-1.428-6.64-.956-9.614-.704-.015 6.471-.195 13.732.098 20.133"/><path fill="#A78255" d="M921.739 159.965c6.97.194 16.823-.576 22.99 1.994 6.488 7.122 5.594 13.596 4.062 22.623-1.464 1.687-2.673 3.046-3.95 4.907l.27 1.507 2.494 1.584c2.268 3.559 2.869 5.398 3.147 9.66 1.54 23.627-9.756 21.782-28.908 21.607-.736-19.501-.428-44.189-.105-63.882m7.142 57.404c3.92.025 8.825.345 12.347-1.38 2.329-3.413 3.583-10.424 2.81-14.24a10.54 10.54 0 0 0-4.5-6.736c-2.929-1.967-7.3-1.486-10.762-1.16.008 7.45-.203 16.17.105 23.516m0-30.371c4.522.009 6.917.206 11.31-1.111 1.81-2.49 1.871-4.015 2.322-6.82 1.802-11.26-4.567-12.83-13.406-12.677-.541 5.69-.489 14.713-.226 20.608"/><path fill="#A78255" d="M849.834 160.127c7.33-.196 13.016-.675 19.783 1.413 9.38 2.891 9.523 17.064 5.993 23.777-4.214 8.015-4.356 1.75 1.277 11.665 2.891 5.095 1.457 15.282-.504 20.968-6.21 7.742-18.01 5.975-27.105 5.875-.3-7.373-.999-59.052.556-63.698m6.737 57.272c4.656-.037 9.26.494 12.94-2.413 3.177-5.314 3.665-16.981-2.643-20.13-3.68-1.84-6.827-1.295-10.658-1.018.038 6.708-.225 17.149.36 23.561m-.188-30.2c4.251.006 8.126.429 11.814-1.811 1.697-2.739 3.102-9.303 2.17-12.315-2.08-6.764-8.118-6.607-13.51-6.917-.894 5.83-.677 14.964-.474 21.042"/><path fill="#0496AD" d="M874.626 623.058c5.888.082 20.286-1.646 24.026 1.435l-.293 2.727-1.194 4.215c-2.644 14.379-2.802 66.946 1.051 80.973.323 1.848.571 2.314-.067 3.987-5.355.327-17.312.329-22.524-.458-.503-2.09.278-3.265.969-5.602 2.636-17.947 3.98-60.291.788-77.864l-.045-.516a613 613 0 0 0-2.711-8.897"/><path fill="#098CA0" d="M894.806 712.877c-5.07-26.167-3.26-54.764-.6-81.132l1.051-.797 1.908.487c-2.644 14.379-2.802 66.946 1.051 80.973.323 1.848.571 2.314-.067 3.987-5.355.327-17.312.329-22.524-.458-.503-2.09.278-3.265.969-5.602 2.636-17.947 3.98-60.291.788-77.864 1.592-.569.834-.59 2.344-.03-.804 24.769-.736 54.89-.706 80.095 2.057 1.406 12.91.493 15.786.341"/><path fill="#028097" d="M876.594 710.335c1.494 2.01 1.532 2.823 4.168 3.14 5.175.62 12.64.863 17.454-1.067.323 1.848.571 2.314-.067 3.987-5.355.327-17.312.329-22.524-.458-.503-2.09.278-3.265.969-5.602"/><path fill="#028097" d="M874.626 623.058c5.888.082 20.286-1.646 24.026 1.435l-.293 2.727c-2.561-1.99-18.093-2.226-20.541-.17l-.48 4.905a613 613 0 0 0-2.712-8.897"/><path fill="#A78255" d="M375.27 210.656c12.724-1.56 33.33-.525 46.463-.16.164 3.231 1.292 8.433-1.776 9.89-3.251-.346-8.336-.076-11.706.075-5.503.116-10.902.148-16.38.737 3.09.264 15.186.624 16.669.994l.349 1.392c1.497-2.116 8.166-2.827 9.671-.634-.193 7.39-.323 14.083-.124 21.497q-9.942.119-19.884.003l.028-12.604c-3.66-.24-10.25-.82-13.494.392 3.048.851 5.772.756 8.917.817l2.078-.617c.3.215 1.104.733 1.28.99l-.406 11.496c-4.792-.67-11.71-.136-16.723.091l-1.222-.98c-.91-3.064-.379-7.645.108-10.786-.472-2.28-.175-7.547-.71-8.942-2.793-7.27-3.637-5.41-3.139-13.651m42.573 21.657c-3.934-1.587-13.903-.669-18.243-.307 3.976 1.88 13.836.988 18.243.307"/><path fill="#B29067" fill-opacity=".325" d="M399.6 232.006c4.34-.362 14.309-1.28 18.243.307-4.407.681-14.267 1.573-18.243-.307"/><path fill="#A78255" d="M902.482 160.397c3.725-.374 3.5-.9 6.527.409 1.494 2.27 1.276 1.265.946 3.76-2.711 3.022-4.71 2.607-8.697 1.7-15.006 1.724-12.452 22.903 3.395 21.184 1.6-3.494 2.576-7.453 6.451-8.449 7.075 3.212 2.223 22.149 2.103 27.983-.12 5.5.458 10.952.744 16.446-1.195 1.35-.601.944-2.577 1.331-2.185-.752-3.342-2.392-4.956-4.133-2.66-.26-5.325 2.691-8.254 3.354-11.747 2.65-13.52-9.285-13.264-17.857-.135-1.887.781-10.796 2.013-11.57 9.32-5.49-.518-5.565-1.615-12.794-2.163-14.241 2.621-22.065 17.184-21.364m-1.99 57.925c2.44-1.27 4.408-2.305 5.024-5.242 1.142-5.511 2.14-12.553.646-17.947-1.99-2.2-5.152-1.514-8.073-1.328-7.894 3.483-7.879 12.925-4.995 20.068 1.367 3.385 4.168 3.896 7.398 4.449"/><path fill="#967351" d="M902.482 160.397c3.725-.374 3.5-.9 6.527.409 1.494 2.27 1.276 1.265.946 3.76-2.711 3.022-4.71 2.607-8.697 1.7 1.36-.615 3.545-.352 5.122-.299l.811-.766-.398-4.155c-1.322-.651-2.816-.58-4.31-.649"/><path fill="#A78255" d="M1161.915 160.139c1.99 6.328 10.845 38.62 14.472 41.033 1.758-3.695-1.87-37.104 1.532-41.014 2.276-.236 1.375-.47 3.35 1 3.718 7.19.811 32.249 1.615 41.172.428 4.684.773 18.686-3.155 21.668-7.968-.95-15.862-39.872-19.752-48.846l-.135.738c-1.472 8.544 1.434 44.502-1.983 48.042-8.682-.307-4.499-30.432-5.167-38.607.135-5.474.428-11.424-.098-16.824.098-2.513-.113-5.593 1.33-7.526 2.17-1.48 4.731-.947 7.51-.857z"/><path fill="#A78255" d="m1200.135 159.945 10.364.31c1.525 7.952 11.972 58.283 10.8 63.047-2.516.342-2.914.44-5.287-.402-1.577-2.052-2.599-9.135-3.162-12.02l-15.464-.124c-.743 3.12-1.84 6.901-1.772 10.04a178 178 0 0 1-6.842-1.165zm-2.32 44.83 8.373.13c1.863-.004 3.936.263 5.37-.704-.195-3.983-5.137-29.26-6.706-32.736-2.944 11.227-4.552 22.12-7.038 33.31"/><path fill="#A78255" d="M1132.872 159.478c12.64 2.175 13.015 8.605 13.744 20.123-.864 1.004-1.953 1.299-3.192 1.824-6.414-.945-2.253-10.694-8.554-15.661-3.605-.797-10.17 2.362-9.651 5.324 1.772 10.098-5.55 43.263 5.85 47.233 7.646 2.66 11.424-17.57 7.345-21.836-2.14-.152-2.831-.157-4.859-.84-1.344-2.47-.954-3.922.879-5.725 3.252-1.117 8.231-.55 11.814-.382.173 8.128 1.277 22.436-2.681 29.031-5.46 9.101-24.507 7.518-25.183-5.885-.766-15.099-3.29-34.645 2.584-48.692 1.464-3.491 8.847-4.169 11.904-4.514"/><path fill="#3E393B" d="m1231.536 458.757.556-.1c4.626-.867 9.59-4.536 13.158-2.704.691 1.966.639 2.862.706 4.91 1.758 2.368 3.65 3.956 3.492 6.44-.893.83-2.433 2.067-2.861 3.1-2.223 9.473-5.077 21.57-5.745 31.092-3.065 1.487-5.58 3.49-8.69 3.752.39-9.477-2.366-41.326-.616-46.49"/><path fill="#A78255" d="M1052.48 160.584c2.246-.475 3.673-1.046 5.708.062.436.917.593 1.022.736 1.98 1.127 15.936-1.089 39.975.736 54.441 5.22.1 13.797-1.35 17.327 2.215.293 1.962.345 2.236-.24 4.122-4.477 1.05-19.347.453-24.808.356-.022-7.26-.938-59.278.541-63.176"/><path fill="#967351" d="M1052.48 160.584c2.246-.475 3.673-1.046 5.708.062.436.917.593 1.022.736 1.98-.924.378-2.178.573-3.192.785-2.44-.872-1.554-.27-3.252-2.827"/><path fill="#A78255" d="M1039.87 421.66c7.383.186 15.006.065 22.411.038.308 7.469.128 15.053.038 22.535-7.473.037-14.938 0-22.404-.111-.698-6.545-.353-15.888-.045-22.461"/><path fill="#A78255" d="m1039.743 394.264 22.734.027q.043 11.254-.173 22.507c-7.42-.135-15.066-.03-22.501-.023-.36-7.69-.203-14.837-.06-22.511"/><path fill="#A78255" d="M653.194 394.407c6.884-.36 15.82-.122 22.857-.137-.244 7.182-.066 15.243-.065 22.491-7.351-.249-15.124-.059-22.51.005q-.344-11.176-.282-22.359"/><path fill="#A78255" d="m1011.856 394.306 22.449-.054-.113 22.616c-7.285-.27-15.073-.145-22.403-.152-.173-7.36 0-15.026.067-22.41"/><path fill="#A78255" d="m653.573 421.82 22.272-.056.069 22.629c-7.243-.252-15.187-.065-22.483-.039-.317-6.943-.528-15.707.142-22.534"/><path fill="#A78255" d="M1011.819 421.889a584 584 0 0 0 22.418-.37q.216 11.399-.142 22.795c-7.443-.101-14.893-.165-22.336-.19q-.134-11.116.06-22.235"/><path fill="#A78255" d="M681.514 421.82c7.486-.041 14.983-.166 22.457.256-.217 7.144-.095 14.887-.121 22.08q-11.135.195-22.27.078c-.344-6.859-.262-15.615-.066-22.414"/><path fill="#A78255" d="M680.95 394.237q11.528-.032 23.052.221c-.231 7.167-.082 15.09-.098 22.316l-22.544-.225c.025-7.235.225-15.163-.41-22.312"/><path fill="#A78255" d="M681.53 185.405c6.801-.293 14.883-.104 21.78-.118.79 7.157.599 15.088.596 22.342-7.348.11-14.956-.018-22.325-.042-.291-7.718-.21-14.497-.05-22.182"/><path fill="#A78255" d="M654.114 185.427c6.415-.389 15.114-.103 21.695-.076.066 7.008.345 15.32-.103 22.21l-22.25.045c-.132-4.167-.88-18.818.658-22.18"/><path fill="#A78255" d="M653.39 213.256q11.265.149 22.534.126c-.224 7.266-.061 14.803-.002 22.092-7.15-.288-15.349-.14-22.58-.18-.123-7.23.02-14.782.047-22.038"/><path fill="#A78255" d="M323.102 394.398a658 658 0 0 1 22.307.036q-.326 11.156-.424 22.316c-7.176-.464-14.597-.296-21.805-.246-.327-7.24-.143-14.833-.078-22.106"/><path fill="#A78255" d="m681.51 213.33 22.375-.01c-.358 6.574-.054 14.314.053 20.982l-.628.732c-5.945.653-15.53.32-21.767.282-.248-7.234-.09-14.728-.033-21.985"/><path fill="#A78255" d="M323.11 421.813q10.97.177 21.94-.025l.043 22.328c-7.215.122-14.724.013-21.966.013-.154-7.299-.023-14.985-.017-22.316"/><path fill="#A78255" d="m313.623 393.691 2.601.643c2.504 3.218 1.215 17.617 1.04 22.221l-21.441.059c-.232-4.18-1.123-19.45.636-22.477 3.51.09 14.246.633 17.164-.446"/><path fill="#A78255" d="M295.719 421.806c7.304-.027 14.22-.04 21.532.269.279 7.077.096 14.951.08 22.089l-21.393-.117c-.329-5.749-.954-16.965-.219-22.241"/><path fill="#CB131A" d="M377.38 111.675c-6.574 2.546-11.714 8.9-11.57 16.002.458 22.38 23.95 33.438 38.203 46.922.748.708 1.23 2.086 1.182 3.121-13.404-9.512-32.272-18.838-40.712-33.123-8.686-14.702-4.917-29.477 10.084-38.014z"/><path fill="#CB131A" d="M428.783 101.56c28.125 17.116 5.999 46.993-10.01 62.722-2.38 2.339-9.367 12.876-11.547 13.88 5.632-18.78 54.376-58.575 14.956-74.058 2.519-1.606 3.726-1.8 6.601-2.544"/><path fill="#028097" fill-opacity=".988" d="M782.285 623.164c8.112-.148 16.23-.172 24.342-.073-3.583 13.428-4.47 23.938-4.176 37.767.323 14.81-3.665 41.458 18.04 42.09l-.12.553c-23.523 2.013-20.24-23.969-20.256-39.754-.015-7.65.045-15.53.631-23.147.413-5.312 1.93-9.205 1.93-14.783l-16.065.045c.075 4.212-.525 9.305-.9 13.568-.977-6.508-1.593-9.979-3.426-16.266"/><path fill="#A78255" d="M388.524 245.63q14.926.18 29.852.115l.119 9.934c-5.117-.352-25.964.482-29.272-.664l-.306-1.445c-1.414-2.098-1.822-5.825-.393-7.94"/><path fill="#098CA0" fill-opacity=".988" d="M934.078 639.845c.616 3.012.774 23.45.639 27.553-.48 14.16.818 32.285-.09 45.964 4.934 0 9.876-.069 14.81-.205-.525-6.3-.12-66.63 1.007-70.126 1.126 27.439-2.419 45.702 3.537 73.507-7.713-.362-16.508-.158-24.296-.15 8.111-21.927 1.27-54.6 4.393-76.543"/><path fill="#028097" fill-opacity=".988" d="M1029.423 702.668c6.407-1.597 10.327-2.925 16.538-5.232-2.771 5.963-5.543 12.857-8.216 18.959-15.457.14-35.472.594-50.598-.322 1.908-6.266 2.441-9.524 3.425-15.975.646 5.444 1.119 8.188.27 13.721 14.33-.65 32.686.568 46.009-.684 1.224-2.727 3.29-6.306 3.124-9.088-3.207-1.695-6.669 1.629-10.552-1.38"/><path fill="#028097" fill-opacity=".988" d="M401.847 695.42c-2.131 5.5-6.157 15.181-7.648 20.66-6.042.295-43.225.824-47.682-.186-.711-1.883-.554-1.17.106-3.465 6.146 2.488 36.753 1.309 45.014.35 2.394-.279 5.214-9.989 3.795-12.523-4.16-.662-12.272 7.133-18.778 2.365 9.798-1.921 15.913-3.527 25.193-7.2"/><path fill="#967351" d="M957.038 188.745c5.753.005 11.408-1.361 16.41.84 1.675 2.205 1.112 1.915 1.059 5.345-5.573.074-11.957 1.544-16.628-.732-1.45-2.316-.939-2.201-.841-5.453"/><path fill="#028097" fill-opacity=".988" d="M1007.756 663.295c4.34-.718 23.808-.278 29.44-.33a733 733 0 0 0-8.772 15.697l-7.758-2.078c2.373.025 4.093.31 5.708-1.347 2.726-2.802 6.481-4.613 6.79-8.674l-1.24-1.183c-5.828-1.53-20.285 1.558-24.168-2.085"/><path fill="#B29067" d="M380.17 245.629h8.354c-1.429 2.116-1.02 5.843.393 7.94l-.392 1.558c-2.757.897-6.594.56-9.59.48-.498-3.654-1.678-7.442 1.235-9.978"/><path fill="#B61721" fill-opacity=".988" d="M398.544 114.852c8.62-11.597 15.379-18.12 30.24-13.292-2.876.743-4.083.938-6.602 2.544-12.688.75-13.423 1.882-23.638 10.748"/><path fill="#028097" fill-opacity=".988" d="M525.47 716.094a423 423 0 0 0 2.62-8.928c1.62 5.407 2.343 7.103 9.036 6.582 3.289-.256 6.43-.533 9.738-.586l2.188-.551c.035 1.883.394 2.583-.545 3.86-7.498.31-15.499-.117-23.037-.377"/><path fill="#2E2C2E" fill-opacity=".988" d="M1249.373 449.057c-.533 3.964-1.179 8.125-1.374 12.102 1.675 2.156 3.132 3.627 3.545 6.312-1.112 2.45-2.17 2.595-4.957 2.932.428-1.033 1.968-2.27 2.861-3.1.158-2.484-1.734-4.072-3.492-6.44-.067-2.048-.015-2.944-.706-4.91-3.567-1.832-8.532 1.837-13.158 2.704l-.556.1c3.207-2.538 13.677-7.58 17.837-9.7"/><path fill="#B61721" d="M374.567 106.583c8.71-.913 10.844-.74 18.452 3.9l-1.39 2.574c-5.313-2.127-8.734-2.422-14.25-1.382z"/><path fill="#028097" fill-opacity=".988" d="m448.332 709.016 1.971 7.396c-3.896.034-21.14.527-23.547-.82-.219-1.843-.165-1.952.268-3.787 3.855 2.557 13.967 2.878 18.491 1.54 1.76-.521 2.22-2.774 2.817-4.329"/><path fill="#028097" fill-opacity=".988" d="m903.902 642.094 4.19-14.579c.661 2.978.812 6.632 2.314 8.546 4.874.356 4.13-.687 8.764.93a272 272 0 0 0-15.268 5.103"/><path fill="#028097" fill-opacity=".988" d="M763.885 624.537c3.447 3.951 2.02 12.678 1.682 18.316-1.45-1.178-4.168-3.505-5.595-4.45.969-.691 1.787-1.419 2.696-2.188 1.194-2.604.699-6.053.533-8.993z"/><path fill="#C5A881" fill-opacity=".09" d="m388.917 253.57.306 1.445c3.308 1.146 24.155.312 29.272.664l-.059.496c-4.535.015-12.478-.193-16.593.699l-2.7.127c-.473 2.934-.71 5.117-.938 8.081l-.579.248-.13-.184c-.4-2.181-.357-6.052-.401-8.415-2.241-.712-13.192-1.197-15.439-.04l-2.9.367.178-1.452c2.997.081 6.834.418 9.591-.479z"/><path fill="#B29067" fill-opacity=".282" d="M394.003 233.055c-3.145-.06-5.869.034-8.917-.817 3.245-1.211 9.834-.632 13.494-.392l-.028 12.604q9.942.115 19.884-.003l.003.707-20.339-.016q-.315-5.86-.74-11.71c-.175-.257-.979-.775-1.28-.99z"/><path fill="#C5A881" fill-opacity=".843" d="M387.098 177.83c6.932 4.079 1.613 14.244.226 19.658-.34 1.327.102 5.638.235 7.132-5.306-6.19 2.001-14.103 1.87-20.681-.018-.907-1.859-5.043-2.331-6.11"/><path fill="#B61721" d="M393.019 110.484c7.226 4.18 8.18 5.936 13.151 12.711-4.091-3.237-9.859-7.765-14.541-10.138z"/><path fill="#C5A881" fill-opacity=".016" d="M397.36 233.428q.425 5.85.74 11.71l20.34.016-.064.591q-14.926.065-29.852-.116c2.845-.367 5.572-.52 8.431-.705z"/><path fill="#B29067" fill-opacity=".863" d="M408.251 220.46c3.37-.15 8.455-.42 11.706-.074l-1.397 2.564c-1.505-2.193-8.174-1.482-9.671.634l-.35-1.392z"/><path fill="#967351" fill-opacity=".988" d="m1195.614 220.796-1.45 1.917c-2.62 1.007-3.965 1.938-5.963-.469l.57-2.613q3.405.648 6.843 1.165"/><path fill="#B29067" fill-opacity=".659" d="M408.54 222.192c-1.483-.37-13.579-.73-16.669-.994 5.478-.59 10.877-.621 16.38-.737z"/><path fill="#B29067" fill-opacity=".929" d="m411.005 190.25.202.127c1.019 5.006-4.497 3.075.156 14.042-5.748-2.72-2.085-10.113-.358-14.17"/><path fill="#C5A881" fill-opacity=".486" d="M401.843 256.874c4.115-.892 12.058-.684 16.593-.699.907 4.34-.446 7.564 1.153 10.459l-1.465-.615.072-9.096z"/><path fill="#C5A881" fill-opacity=".114" d="M380.232 245.015c5.013-.227 11.931-.76 16.723-.091-2.86.184-5.586.338-8.431.705h-8.354z"/><path fill="#C5A881" fill-opacity=".431" d="M381.656 256.69c2.247-1.156 13.198-.67 15.439.041-3.879.364-11.252.04-15.439-.04"/></svg>